<svg data-v-5f19e91b="" xmlns="http://www.w3.org/2000/svg" width="582.8410740652421" height="60" viewBox="0 0 582.8410740652421 60"><!----> <!----> <!----> <g data-v-5f19e91b="" id="885c0803-a5c0-39a2-9cc1-ec2942a9136f" fill="white" transform="matrix(5.644403079677477,0,0,5.644403079677477,3.2173084256597235,-21.787396164327014)"><path d="M9.93 7.95L8.55 12.71L8.55 12.71Q8.50 12.89 8.50 13.08L8.50 13.08L8.50 13.08Q8.50 13.23 8.54 13.34L8.54 13.34L8.54 13.34Q8.58 13.44 8.63 13.50L8.63 13.50L8.63 13.50Q8.68 13.57 8.69 13.59L8.69 13.59L8.69 13.59Q8.83 13.73 8.83 13.87L8.83 13.87L8.83 13.87Q8.83 13.90 8.81 14.01L8.81 14.01L8.81 14.01Q8.75 14.21 8.56 14.29L8.56 14.29L8.56 14.29Q8.37 14.36 7.98 14.36L7.98 14.36L4.66 14.36L4.66 14.36Q4.37 14.36 4.21 14.27L4.21 14.27L4.21 14.27Q4.05 14.17 4.05 14L4.05 14L4.05 14Q4.05 13.92 4.09 13.82L4.09 13.82L4.09 13.82Q4.13 13.71 4.21 13.64L4.21 13.64L4.21 13.64Q4.28 13.58 4.42 13.50L4.42 13.50L4.42 13.50Q4.65 13.37 4.79 13.22L4.79 13.22L4.79 13.22Q4.93 13.06 5.03 12.71L5.03 12.71L5.39 11.51L3.21 11.51L2.83 12.31L2.83 12.31Q2.59 12.82 2.59 13.12L2.59 13.12L2.59 13.12Q2.59 13.29 2.65 13.39L2.65 13.39L2.65 13.39Q2.70 13.50 2.81 13.61L2.81 13.61L2.81 13.61Q2.91 13.72 2.95 13.80L2.95 13.80L2.95 13.80Q2.98 13.87 2.95 14L2.95 14L2.95 14Q2.90 14.21 2.72 14.29L2.72 14.29L2.72 14.29Q2.55 14.36 2.17 14.36L2.17 14.36L0.08 14.36L0.08 14.36Q-0.24 14.36-0.41 14.25L-0.41 14.25L-0.41 14.25Q-0.57 14.13-0.57 13.93L-0.57 13.93L-0.57 13.93Q-0.57 13.71-0.41 13.57L-0.41 13.57L-0.41 13.57Q-0.25 13.44 0.07 13.29L0.07 13.29L0.07 13.29Q0.49 13.08 0.74 12.87L0.74 12.87L0.74 12.87Q0.99 12.67 1.18 12.31L1.18 12.31L3.67 7.14L3.67 7.14Q4.24 5.94 5.02 5.40L5.02 5.40L5.02 5.40Q5.80 4.86 7.07 4.86L7.07 4.86L7.07 4.86Q8.50 4.86 9.28 5.44L9.28 5.44L9.28 5.44Q10.07 6.02 10.07 7.06L10.07 7.06L10.07 7.06Q10.07 7.49 9.93 7.95L9.93 7.95ZM3.85 10.11L5.81 10.11L6.55 7.64L6.55 7.64Q6.61 7.48 6.61 7.29L6.61 7.29L6.61 7.29Q6.61 7.03 6.46 6.90L6.46 6.90L6.46 6.90Q6.31 6.76 6.05 6.76L6.05 6.76L6.05 6.76Q5.71 6.76 5.47 6.96L5.47 6.96L5.47 6.96Q5.24 7.15 5.00 7.66L5.00 7.66L3.85 10.11ZM17.60 12.35L17.60 12.35Q17.57 12.46 17.57 12.50L17.57 12.50L17.57 12.50Q17.57 12.60 17.63 12.66L17.63 12.66L17.63 12.66Q17.68 12.71 17.77 12.71L17.77 12.71L17.77 12.71Q17.93 12.71 18.05 12.57L18.05 12.57L18.05 12.57Q18.17 12.42 18.21 12.42L18.21 12.42L18.21 12.42Q18.28 12.42 18.33 12.52L18.33 12.52L18.33 12.52Q18.37 12.61 18.37 12.74L18.37 12.74L18.37 12.74Q18.38 13.12 18.08 13.51L18.08 13.51L18.08 13.51Q17.78 13.90 17.28 14.15L17.28 14.15L17.28 14.15Q16.77 14.41 16.18 14.41L16.18 14.41L16.18 14.41Q15.48 14.41 14.97 14.14L14.97 14.14L14.97 14.14Q14.45 13.87 14.25 13.44L14.25 13.44L14.25 13.44Q13.87 13.93 13.38 14.17L13.38 14.17L13.38 14.17Q12.89 14.41 12.35 14.41L12.35 14.41L12.35 14.41Q11.70 14.41 11.15 14.08L11.15 14.08L11.15 14.08Q10.60 13.76 10.27 13.17L10.27 13.17L10.27 13.17Q9.94 12.57 9.94 11.82L9.94 11.82L9.94 11.82Q9.94 10.54 10.42 9.42L10.42 9.42L10.42 9.42Q10.91 8.29 11.77 7.60L11.77 7.60L11.77 7.60Q12.64 6.90 13.75 6.90L13.75 6.90L13.75 6.90Q14.35 6.90 14.78 7.04L14.78 7.04L14.78 7.04Q15.20 7.18 15.55 7.46L15.55 7.46L16.03 5.89L16.03 5.89Q16.07 5.77 16.07 5.68L16.07 5.68L16.07 5.68Q16.07 5.53 16.00 5.43L16.00 5.43L16.00 5.43Q15.92 5.33 15.79 5.24L15.79 5.24L15.79 5.24Q15.65 5.12 15.59 5.04L15.59 5.04L15.59 5.04Q15.53 4.96 15.57 4.82L15.57 4.82L15.57 4.82Q15.65 4.49 16.45 4.26L16.45 4.26L16.45 4.26Q17.25 4.02 18.12 4.02L18.12 4.02L18.12 4.02Q18.93 4.02 19.31 4.33L19.31 4.33L19.31 4.33Q19.70 4.63 19.70 5.17L19.70 5.17L19.70 5.17Q19.70 5.47 19.60 5.77L19.60 5.77L17.60 12.35ZM15.26 8.41L15.26 8.41Q15.04 8.22 14.77 8.22L14.77 8.22L14.77 8.22Q14.36 8.22 13.97 8.82L13.97 8.82L13.97 8.82Q13.58 9.42 13.34 10.28L13.34 10.28L13.34 10.28Q13.10 11.13 13.12 11.82L13.12 11.82L13.12 11.82Q13.12 12.59 13.62 12.59L13.62 12.59L13.62 12.59Q13.80 12.59 13.93 12.44L13.93 12.44L13.93 12.44Q14.06 12.29 14.17 11.96L14.17 11.96L15.26 8.41ZM22.82 6.96L22.82 6.96Q24.43 6.96 25.40 7.55L25.40 7.55L25.40 7.55Q26.36 8.15 26.36 9.37L26.36 9.37L26.36 9.37Q26.36 9.83 26.19 10.42L26.19 10.42L25.62 12.35L25.62 12.35Q25.61 12.40 25.61 12.49L25.61 12.49L25.61 12.49Q25.61 12.71 25.79 12.71L25.79 12.71L25.79 12.71Q25.96 12.71 26.07 12.57L26.07 12.57L26.07 12.57Q26.19 12.42 26.24 12.42L26.24 12.42L26.24 12.42Q26.31 12.42 26.35 12.52L26.35 12.52L26.35 12.52Q26.40 12.61 26.40 12.74L26.40 12.74L26.40 12.74Q26.42 13.12 26.12 13.51L26.12 13.51L26.12 13.51Q25.82 13.90 25.31 14.15L25.31 14.15L25.31 14.15Q24.81 14.41 24.21 14.41L24.21 14.41L24.21 14.41Q23.48 14.41 22.96 14.14L22.96 14.14L22.96 14.14Q22.44 13.87 22.25 13.36L22.25 13.36L22.25 13.36Q21.83 13.86 21.25 14.13L21.25 14.13L21.25 14.13Q20.68 14.41 20.02 14.41L20.02 14.41L20.02 14.41Q19.28 14.41 18.77 14.12L18.77 14.12L18.77 14.12Q18.27 13.83 18.02 13.38L18.02 13.38L18.02 13.38Q17.78 12.92 17.78 12.42L17.78 12.42L17.78 12.42Q17.78 12.19 17.82 11.98L17.82 11.98L17.82 11.98Q18.05 11.02 18.79 10.53L18.79 10.53L18.79 10.53Q19.54 10.04 20.58 10.04L20.58 10.04L20.58 10.04Q21.74 10.04 22.86 10.40L22.86 10.40L23.21 9.48L23.21 9.48Q23.39 8.89 23.39 8.57L23.39 8.57L23.39 8.57Q23.38 8.23 23.17 8.06L23.17 8.06L23.17 8.06Q22.96 7.90 22.53 7.90L22.53 7.90L22.53 7.90Q22.61 8.12 22.61 8.36L22.61 8.36L22.61 8.36Q22.61 8.88 22.22 9.25L22.22 9.25L22.22 9.25Q21.83 9.63 21.10 9.63L21.10 9.63L21.10 9.63Q20.41 9.63 20.03 9.33L20.03 9.33L20.03 9.33Q19.64 9.03 19.64 8.58L19.64 8.58L19.64 8.58Q19.64 7.88 20.43 7.42L20.43 7.42L20.43 7.42Q21.21 6.96 22.82 6.96L22.82 6.96ZM22.04 11.20L22.04 11.20Q21.64 11.20 21.40 11.50L21.40 11.50L21.40 11.50Q21.15 11.80 21.15 12.15L21.15 12.15L21.15 12.15Q21.15 12.38 21.26 12.52L21.26 12.52L21.26 12.52Q21.36 12.66 21.56 12.66L21.56 12.66L21.56 12.66Q21.74 12.66 21.96 12.51L21.96 12.51L21.96 12.51Q22.18 12.36 22.27 12.07L22.27 12.07L22.57 11.24L22.57 11.24Q22.33 11.20 22.04 11.20L22.04 11.20ZM41.15 9.67L40.29 12.43L40.29 12.43Q40.26 12.49 40.26 12.60L40.26 12.60L40.26 12.60Q40.26 12.70 40.31 12.75L40.31 12.75L40.31 12.75Q40.36 12.81 40.45 12.81L40.45 12.81L40.45 12.81Q40.61 12.81 40.73 12.66L40.73 12.66L40.73 12.66Q40.85 12.52 40.89 12.52L40.89 12.52L40.89 12.52Q40.96 12.52 41.01 12.61L41.01 12.61L41.01 12.61Q41.05 12.70 41.05 12.82L41.05 12.82L41.05 12.82Q41.06 13.23 40.78 13.62L40.78 13.62L40.78 13.62Q40.50 14 39.96 14.25L39.96 14.25L39.96 14.25Q39.42 14.49 38.67 14.49L38.67 14.49L38.67 14.49Q37.74 14.49 37.20 14.06L37.20 14.06L37.20 14.06Q36.65 13.64 36.64 12.92L36.64 12.92L36.64 12.92Q36.64 12.40 36.89 11.76L36.89 11.76L37.66 9.74L37.66 9.74Q37.73 9.56 37.73 9.45L37.73 9.45L37.73 9.45Q37.73 9.27 37.61 9.16L37.61 9.16L37.61 9.16Q37.49 9.06 37.32 9.06L37.32 9.06L37.32 9.06Q37.09 9.06 36.83 9.27L36.83 9.27L36.83 9.27Q36.58 9.48 36.39 9.93L36.39 9.93L35.62 12.43L35.62 12.43Q35.59 12.49 35.59 12.60L35.59 12.60L35.59 12.60Q35.59 12.70 35.64 12.75L35.64 12.75L35.64 12.75Q35.69 12.81 35.77 12.81L35.77 12.81L35.77 12.81Q35.94 12.81 36.06 12.66L36.06 12.66L36.06 12.66Q36.18 12.52 36.22 12.52L36.22 12.52L36.22 12.52Q36.29 12.52 36.33 12.61L36.33 12.61L36.33 12.61Q36.37 12.70 36.37 12.82L36.37 12.82L36.37 12.82Q36.39 13.23 36.11 13.62L36.11 13.62L36.11 13.62Q35.83 14 35.29 14.25L35.29 14.25L35.29 14.25Q34.75 14.49 33.99 14.49L33.99 14.49L33.99 14.49Q33.07 14.49 32.52 14.06L32.52 14.06L32.52 14.06Q31.98 13.64 31.96 12.92L31.96 12.92L31.96 12.92Q31.96 12.40 32.21 11.76L32.21 11.76L32.98 9.74L32.98 9.74Q33.05 9.56 33.05 9.45L33.05 9.45L33.05 9.45Q33.05 9.27 32.94 9.16L32.94 9.16L32.94 9.16Q32.82 9.06 32.65 9.06L32.65 9.06L32.65 9.06Q32.41 9.06 32.16 9.26L32.16 9.26L32.16 9.26Q31.91 9.46 31.74 9.91L31.74 9.91L30.81 12.91L30.81 12.91Q30.76 13.06 30.76 13.20L30.76 13.20L30.76 13.20Q30.76 13.37 30.83 13.48L30.83 13.48L30.83 13.48Q30.90 13.58 31.02 13.69L31.02 13.69L31.02 13.69Q31.12 13.78 31.16 13.85L31.16 13.85L31.16 13.85Q31.21 13.92 31.18 14.01L31.18 14.01L31.18 14.01Q31.12 14.20 30.91 14.28L30.91 14.28L30.91 14.28Q30.70 14.36 30.25 14.36L30.25 14.36L27.06 14.36L27.06 14.36Q26.70 14.36 26.54 14.25L26.54 14.25L26.54 14.25Q26.38 14.13 26.42 13.93L26.42 13.93L26.42 13.93Q26.47 13.76 26.71 13.64L26.71 13.64L26.71 13.64Q26.92 13.52 27.06 13.37L27.06 13.37L27.06 13.37Q27.20 13.22 27.30 12.88L27.30 12.88L28.55 8.83L28.55 8.83Q28.57 8.76 28.57 8.64L28.57 8.64L28.57 8.64Q28.57 8.48 28.51 8.40L28.51 8.40L28.51 8.40Q28.45 8.32 28.31 8.19L28.31 8.19L28.31 8.19Q28.17 8.08 28.11 7.99L28.11 7.99L28.11 7.99Q28.06 7.91 28.10 7.77L28.10 7.77L28.10 7.77Q28.18 7.45 28.98 7.20L28.98 7.20L28.98 7.20Q29.78 6.96 30.65 6.96L30.65 6.96L30.65 6.96Q31.33 6.96 31.73 7.34L31.73 7.34L31.73 7.34Q32.13 7.71 32.12 8.37L32.12 8.37L32.12 8.37Q32.69 7.57 33.33 7.27L33.33 7.27L33.33 7.27Q33.96 6.96 34.71 6.96L34.71 6.96L34.71 6.96Q35.52 6.96 36.03 7.43L36.03 7.43L36.03 7.43Q36.54 7.90 36.60 8.65L36.60 8.65L36.60 8.65Q37.20 7.70 37.88 7.33L37.88 7.33L37.88 7.33Q38.57 6.96 39.38 6.96L39.38 6.96L39.38 6.96Q40.24 6.96 40.76 7.48L40.76 7.48L40.76 7.48Q41.29 7.99 41.29 8.82L41.29 8.82L41.29 8.82Q41.29 9.25 41.15 9.67L41.15 9.67ZM51.16 5.04L51.16 5.04Q53.26 5.04 54.32 5.85L54.32 5.85L54.32 5.85Q55.38 6.65 55.38 8.20L55.38 8.20L55.38 8.20Q55.38 8.97 55.10 9.98L55.10 9.98L55.10 9.98Q54.64 11.61 53.86 12.56L53.86 12.56L53.86 12.56Q53.07 13.51 51.79 13.94L51.79 13.94L51.79 13.94Q50.51 14.38 48.51 14.36L48.51 14.36L44.70 14.35L44.70 14.35Q44.41 14.35 44.25 14.25L44.25 14.25L44.25 14.25Q44.09 14.15 44.09 13.99L44.09 13.99L44.09 13.99Q44.09 13.90 44.13 13.80L44.13 13.80L44.13 13.80Q44.17 13.68 44.25 13.62L44.25 13.62L44.25 13.62Q44.32 13.57 44.48 13.47L44.48 13.47L44.48 13.47Q44.70 13.34 44.84 13.19L44.84 13.19L44.84 13.19Q44.97 13.03 45.07 12.70L45.07 12.70L46.77 6.68L46.77 6.68Q46.83 6.50 46.83 6.33L46.83 6.33L46.83 6.33Q46.83 6.17 46.78 6.07L46.78 6.07L46.78 6.07Q46.73 5.96 46.65 5.82L46.65 5.82L46.65 5.82Q46.52 5.64 46.52 5.53L46.52 5.53L46.52 5.53Q46.52 5.49 46.55 5.38L46.55 5.38L46.55 5.38Q46.61 5.19 46.80 5.12L46.80 5.12L46.80 5.12Q46.98 5.04 47.38 5.04L47.38 5.04L51.16 5.04ZM51.52 9.67L51.52 9.67Q51.88 8.36 51.88 7.60L51.88 7.60L51.88 7.60Q51.88 6.86 51.58 6.58L51.58 6.58L51.58 6.58Q51.27 6.30 50.69 6.30L50.69 6.30L50.39 6.30L48.50 13.10L48.83 13.10L48.83 13.10Q49.48 13.10 49.92 12.83L49.92 12.83L49.92 12.83Q50.36 12.56 50.74 11.82L50.74 11.82L50.74 11.82Q51.11 11.09 51.52 9.67L51.52 9.67ZM64.71 8.72L63.57 12.43L63.57 12.43Q63.55 12.54 63.55 12.60L63.55 12.60L63.55 12.60Q63.55 12.70 63.59 12.75L63.59 12.75L63.59 12.75Q63.64 12.81 63.73 12.81L63.73 12.81L63.73 12.81Q63.90 12.81 64.02 12.66L64.02 12.66L64.02 12.66Q64.13 12.52 64.18 12.52L64.18 12.52L64.18 12.52Q64.25 12.52 64.30 12.61L64.30 12.61L64.30 12.61Q64.34 12.70 64.34 12.82L64.34 12.82L64.34 12.82Q64.36 13.22 64.06 13.60L64.06 13.60L64.06 13.60Q63.77 13.99 63.24 14.24L63.24 14.24L63.24 14.24Q62.71 14.49 62.05 14.49L62.05 14.49L62.05 14.49Q61.22 14.49 60.73 14.15L60.73 14.15L60.73 14.15Q60.24 13.82 60.10 13.27L60.10 13.27L60.10 13.27Q59.60 13.83 58.99 14.12L58.99 14.12L58.99 14.12Q58.38 14.41 57.75 14.41L57.75 14.41L57.75 14.41Q56.77 14.41 56.11 13.92L56.11 13.92L56.11 13.92Q55.44 13.44 55.44 12.57L55.44 12.57L55.44 12.57Q55.44 12.18 55.58 11.76L55.58 11.76L56.48 8.83L56.48 8.83Q56.52 8.71 56.52 8.62L56.52 8.62L56.52 8.62Q56.52 8.47 56.45 8.38L56.45 8.38L56.45 8.38Q56.38 8.29 56.24 8.19L56.24 8.19L56.24 8.19Q56.10 8.08 56.04 7.99L56.04 7.99L56.04 7.99Q55.99 7.91 56.03 7.77L56.03 7.77L56.03 7.77Q56.11 7.45 56.91 7.20L56.91 7.20L56.91 7.20Q57.71 6.96 58.58 6.96L58.58 6.96L58.58 6.96Q59.39 6.96 59.77 7.27L59.77 7.27L59.77 7.27Q60.14 7.57 60.14 8.11L60.14 8.11L60.14 8.11Q60.14 8.43 60.05 8.72L60.05 8.72L59.16 11.63L59.16 11.63Q59.11 11.79 59.11 11.93L59.11 11.93L59.11 11.93Q59.11 12.12 59.22 12.22L59.22 12.22L59.22 12.22Q59.33 12.32 59.51 12.32L59.51 12.32L59.51 12.32Q59.78 12.32 59.95 12.17L59.95 12.17L59.95 12.17Q60.12 12.01 60.28 11.65L60.28 11.65L61.14 8.83L61.14 8.83Q61.18 8.71 61.18 8.62L61.18 8.62L61.18 8.62Q61.18 8.47 61.11 8.38L61.11 8.38L61.11 8.38Q61.04 8.29 60.91 8.19L60.91 8.19L60.91 8.19Q60.77 8.08 60.72 7.99L60.72 7.99L60.72 7.99Q60.66 7.91 60.70 7.77L60.70 7.77L60.70 7.77Q60.77 7.45 61.57 7.20L61.57 7.20L61.57 7.20Q62.37 6.96 63.24 6.96L63.24 6.96L63.24 6.96Q64.05 6.96 64.44 7.27L64.44 7.27L64.44 7.27Q64.82 7.57 64.82 8.09L64.82 8.09L64.82 8.09Q64.82 8.36 64.71 8.72L64.71 8.72ZM72.00 6.90L72.00 6.90Q73.04 6.90 73.66 7.64L73.66 7.64L73.66 7.64Q74.28 8.39 74.28 9.60L74.28 9.60L74.28 9.60Q74.28 10.23 74.13 10.84L74.13 10.84L74.13 10.84Q73.68 12.64 72.60 13.57L72.60 13.57L72.60 13.57Q71.51 14.49 70.10 14.49L70.10 14.49L70.10 14.49Q69.30 14.49 68.72 14.22L68.72 14.22L68.72 14.22Q68.14 13.94 67.79 13.44L67.79 13.44L67.28 13.87L67.28 13.87Q66.99 14.13 66.71 14.25L66.71 14.25L66.71 14.25Q66.43 14.36 66.07 14.36L66.07 14.36L65.45 14.36L65.45 14.36Q65.10 14.36 64.91 14.22L64.91 14.22L64.91 14.22Q64.72 14.07 64.72 13.79L64.72 13.79L64.72 13.79Q64.72 13.66 64.76 13.50L64.76 13.50L67.10 5.89L67.10 5.89Q67.14 5.77 67.14 5.68L67.14 5.68L67.14 5.68Q67.14 5.45 66.85 5.24L66.85 5.24L66.85 5.24Q66.71 5.11 66.65 5.03L66.65 5.03L66.65 5.03Q66.60 4.96 66.64 4.83L66.64 4.83L66.64 4.83Q66.74 4.51 67.53 4.26L67.53 4.26L67.53 4.26Q68.32 4.02 69.19 4.02L69.19 4.02L69.19 4.02Q70.00 4.02 70.39 4.33L70.39 4.33L70.39 4.33Q70.77 4.65 70.77 5.18L70.77 5.18L70.77 5.18Q70.77 5.47 70.67 5.77L70.67 5.77L70.08 7.67L70.08 7.67Q70.90 6.90 72.00 6.90L72.00 6.90ZM70.42 10.75L70.42 10.75Q70.70 9.80 70.70 9.21L70.70 9.21L70.70 9.21Q70.70 8.57 70.32 8.57L70.32 8.57L70.32 8.57Q69.99 8.57 69.69 8.92L69.69 8.92L68.78 11.89L68.70 12.15L68.70 12.15L68.70 12.15Q68.63 12.36 68.63 12.59L68.63 12.59L68.63 12.59Q68.63 13.08 69.09 13.08L69.09 13.08L69.09 13.08Q69.43 13.08 69.73 12.59L69.73 12.59L69.73 12.59Q70.04 12.10 70.42 10.75L70.42 10.75ZM77.98 6.96L77.98 6.96Q78.79 6.96 79.17 7.27L79.17 7.27L79.17 7.27Q79.55 7.57 79.55 8.11L79.55 8.11L79.55 8.11Q79.55 8.43 79.45 8.72L79.45 8.72L78.16 12.91L78.16 12.91Q78.12 13.08 78.12 13.20L78.12 13.20L78.12 13.20Q78.12 13.38 78.19 13.49L78.19 13.49L78.19 13.49Q78.26 13.59 78.39 13.69L78.39 13.69L78.39 13.69Q78.48 13.79 78.53 13.85L78.53 13.85L78.53 13.85Q78.57 13.92 78.54 14.01L78.54 14.01L78.54 14.01Q78.47 14.20 78.26 14.28L78.26 14.28L78.26 14.28Q78.05 14.36 77.62 14.36L77.62 14.36L74.42 14.36L74.42 14.36Q74.06 14.36 73.89 14.25L73.89 14.25L73.89 14.25Q73.72 14.13 73.78 13.93L73.78 13.93L73.78 13.93Q73.84 13.76 74.07 13.64L74.07 13.64L74.07 13.64Q74.28 13.52 74.42 13.37L74.42 13.37L74.42 13.37Q74.56 13.22 74.66 12.88L74.66 12.88L75.88 8.83L75.88 8.83Q75.92 8.71 75.92 8.62L75.92 8.62L75.92 8.62Q75.92 8.47 75.85 8.38L75.85 8.38L75.85 8.38Q75.78 8.29 75.64 8.19L75.64 8.19L75.64 8.19Q75.50 8.08 75.45 7.99L75.45 7.99L75.45 7.99Q75.39 7.91 75.43 7.77L75.43 7.77L75.43 7.77Q75.52 7.45 76.31 7.20L76.31 7.20L76.31 7.20Q77.11 6.96 77.98 6.96L77.98 6.96ZM78.92 3.86L78.92 3.86Q79.46 3.86 79.83 4.22L79.83 4.22L79.83 4.22Q80.19 4.58 80.19 5.10L80.19 5.10L80.19 5.10Q80.19 5.46 80.00 5.81L80.00 5.81L80.00 5.81Q79.81 6.16 79.47 6.38L79.47 6.38L79.47 6.38Q79.13 6.59 78.71 6.59L78.71 6.59L78.71 6.59Q78.18 6.59 77.82 6.24L77.82 6.24L77.82 6.24Q77.46 5.88 77.45 5.35L77.45 5.35L77.45 5.35Q77.45 5.00 77.63 4.66L77.63 4.66L77.63 4.66Q77.81 4.31 78.15 4.09L78.15 4.09L78.15 4.09Q78.48 3.86 78.92 3.86L78.92 3.86ZM84.55 6.89L84.55 6.89Q85.40 6.89 86.04 7.13L86.04 7.13L86.04 7.13Q86.69 7.38 87.05 7.81L87.05 7.81L87.05 7.81Q87.40 8.23 87.40 8.75L87.40 8.75L87.40 8.75Q87.40 9.31 87.02 9.67L87.02 9.67L87.02 9.67Q86.63 10.04 85.97 10.04L85.97 10.04L85.97 10.04Q85.30 10.04 84.92 9.70L84.92 9.70L84.92 9.70Q84.55 9.35 84.55 8.76L84.55 8.76L84.55 8.76Q84.55 8.48 84.63 8.18L84.63 8.18L84.63 8.18Q84.04 8.33 83.59 8.79L83.59 8.79L83.59 8.79Q83.13 9.24 82.98 9.98L82.98 9.98L82.98 9.98Q82.89 10.40 82.89 10.74L82.89 10.74L82.89 10.74Q82.89 11.49 83.31 11.89L83.31 11.89L83.31 11.89Q83.73 12.28 84.52 12.28L84.52 12.28L84.52 12.28Q84.97 12.28 85.29 12.19L85.29 12.19L85.29 12.19Q85.61 12.10 85.95 11.94L85.95 11.94L85.95 11.94Q86.23 11.80 86.35 11.80L86.35 11.80L86.35 11.80Q86.44 11.80 86.46 11.84L86.46 11.84L86.46 11.84Q86.49 11.87 86.49 11.98L86.49 11.98L86.49 11.98Q86.51 12.50 86.06 13.07L86.06 13.07L86.06 13.07Q85.62 13.64 84.85 14.02L84.85 14.02L84.85 14.02Q84.07 14.41 83.10 14.41L83.10 14.41L83.10 14.41Q82.10 14.41 81.32 14.04L81.32 14.04L81.32 14.04Q80.54 13.66 80.11 12.97L80.11 12.97L80.11 12.97Q79.69 12.28 79.69 11.35L79.69 11.35L79.69 11.35Q79.69 10.92 79.80 10.39L79.80 10.39L79.80 10.39Q80.18 8.65 81.47 7.77L81.47 7.77L81.47 7.77Q82.77 6.89 84.55 6.89L84.55 6.89ZM95.35 6.96L95.35 6.96Q96.15 6.96 96.63 7.40L96.63 7.40L96.63 7.40Q97.12 7.84 97.12 8.47L97.12 8.47L97.12 8.47Q97.12 9.14 96.71 9.52L96.71 9.52L96.71 9.52Q96.31 9.90 95.65 9.90L95.65 9.90L95.65 9.90Q95.06 9.90 94.74 9.60L94.74 9.60L94.74 9.60Q94.42 9.30 94.43 8.92L94.43 8.92L94.43 8.92Q94.29 8.89 94.19 9.03L94.19 9.03L94.19 9.03Q94.09 9.17 93.98 9.58L93.98 9.58L93.98 9.58Q93.91 9.84 93.72 10.07L93.72 10.07L93.72 10.07Q94.67 10.14 95.13 10.50L95.13 10.50L95.13 10.50Q95.59 10.86 95.59 11.44L95.59 11.44L95.59 11.44Q95.59 11.72 95.49 12.00L95.49 12.00L95.38 12.43L95.38 12.43Q95.35 12.50 95.35 12.61L95.35 12.61L95.35 12.61Q95.35 12.81 95.54 12.81L95.54 12.81L95.54 12.81Q95.70 12.81 95.82 12.66L95.82 12.66L95.82 12.66Q95.94 12.52 95.98 12.52L95.98 12.52L95.98 12.52Q96.05 12.52 96.10 12.61L96.10 12.61L96.10 12.61Q96.14 12.70 96.14 12.82L96.14 12.82L96.14 12.82Q96.15 13.23 95.89 13.62L95.89 13.62L95.89 13.62Q95.63 14 95.11 14.25L95.11 14.25L95.11 14.25Q94.58 14.49 93.84 14.49L93.84 14.49L93.84 14.49Q92.95 14.49 92.35 14.04L92.35 14.04L92.35 14.04Q91.76 13.59 91.76 12.87L91.76 12.87L91.76 12.87Q91.76 12.60 91.87 12.26L91.87 12.26L92.13 11.56L92.13 11.56Q92.20 11.31 92.20 11.20L92.20 11.20L92.20 11.20Q92.20 11.02 92.08 10.93L92.08 10.93L92.08 10.93Q91.97 10.85 91.71 10.85L91.71 10.85L91.43 10.85L90.80 12.91L90.80 12.91Q90.76 13.08 90.76 13.20L90.76 13.20L90.76 13.20Q90.76 13.38 90.83 13.49L90.83 13.49L90.83 13.49Q90.90 13.59 91.03 13.69L91.03 13.69L91.03 13.69Q91.13 13.79 91.17 13.85L91.17 13.85L91.17 13.85Q91.21 13.92 91.18 14.01L91.18 14.01L91.18 14.01Q91.11 14.20 90.90 14.28L90.90 14.28L90.90 14.28Q90.69 14.36 90.26 14.36L90.26 14.36L87.07 14.36L87.07 14.36Q86.70 14.36 86.53 14.25L86.53 14.25L86.53 14.25Q86.37 14.13 86.42 13.93L86.42 13.93L86.42 13.93Q86.48 13.76 86.72 13.64L86.72 13.64L86.72 13.64Q86.93 13.52 87.07 13.37L87.07 13.37L87.07 13.37Q87.21 13.22 87.30 12.88L87.30 12.88L89.43 5.89L89.43 5.89Q89.47 5.77 89.47 5.68L89.47 5.68L89.47 5.68Q89.47 5.53 89.40 5.43L89.40 5.43L89.40 5.43Q89.32 5.33 89.19 5.24L89.19 5.24L89.19 5.24Q89.05 5.12 88.99 5.04L88.99 5.04L88.99 5.04Q88.93 4.96 88.97 4.82L88.97 4.82L88.97 4.82Q89.05 4.49 89.85 4.26L89.85 4.26L89.85 4.26Q90.65 4.02 91.52 4.02L91.52 4.02L91.52 4.02Q92.33 4.02 92.71 4.32L92.71 4.32L92.71 4.32Q93.09 4.62 93.09 5.15L93.09 5.15L93.09 5.15Q93.09 5.47 92.99 5.77L92.99 5.77L91.77 9.74L92.23 9.74L92.23 9.74Q92.51 9.74 92.69 9.58L92.69 9.58L92.69 9.58Q92.86 9.41 92.96 9.09L92.96 9.09L92.96 9.09Q93.31 8.05 93.87 7.50L93.87 7.50L93.87 7.50Q94.43 6.96 95.35 6.96L95.35 6.96ZM100.48 6.96L100.48 6.96Q101.29 6.96 101.67 7.27L101.67 7.27L101.67 7.27Q102.05 7.57 102.05 8.11L102.05 8.11L102.05 8.11Q102.05 8.43 101.95 8.72L101.95 8.72L100.66 12.91L100.66 12.91Q100.62 13.08 100.62 13.20L100.62 13.20L100.62 13.20Q100.62 13.38 100.69 13.49L100.69 13.49L100.69 13.49Q100.76 13.59 100.88 13.69L100.88 13.69L100.88 13.69Q100.98 13.79 101.02 13.85L101.02 13.85L101.02 13.85Q101.07 13.92 101.04 14.01L101.04 14.01L101.04 14.01Q100.97 14.20 100.76 14.28L100.76 14.28L100.76 14.28Q100.55 14.36 100.11 14.36L100.11 14.36L96.92 14.36L96.92 14.36Q96.56 14.36 96.39 14.25L96.39 14.25L96.39 14.25Q96.22 14.13 96.28 13.93L96.28 13.93L96.28 13.93Q96.33 13.76 96.57 13.64L96.57 13.64L96.57 13.64Q96.78 13.52 96.92 13.37L96.92 13.37L96.92 13.37Q97.06 13.22 97.16 12.88L97.16 12.88L98.38 8.83L98.38 8.83Q98.42 8.71 98.42 8.62L98.42 8.62L98.42 8.62Q98.42 8.47 98.35 8.38L98.35 8.38L98.35 8.38Q98.28 8.29 98.14 8.19L98.14 8.19L98.14 8.19Q98 8.08 97.94 7.99L97.94 7.99L97.94 7.99Q97.89 7.91 97.93 7.77L97.93 7.77L97.93 7.77Q98.01 7.45 98.81 7.20L98.81 7.20L98.81 7.20Q99.61 6.96 100.48 6.96L100.48 6.96ZM101.42 3.86L101.42 3.86Q101.96 3.86 102.33 4.22L102.33 4.22L102.33 4.22Q102.69 4.58 102.69 5.10L102.69 5.10L102.69 5.10Q102.69 5.46 102.50 5.81L102.50 5.81L102.50 5.81Q102.31 6.16 101.97 6.38L101.97 6.38L101.97 6.38Q101.63 6.59 101.21 6.59L101.21 6.59L101.21 6.59Q100.67 6.59 100.32 6.24L100.32 6.24L100.32 6.24Q99.96 5.88 99.95 5.35L99.95 5.35L99.95 5.35Q99.95 5.00 100.13 4.66L100.13 4.66L100.13 4.66Q100.31 4.31 100.65 4.09L100.65 4.09L100.65 4.09Q100.98 3.86 101.42 3.86L101.42 3.86Z"></path></g> <!----></svg>