<svg xmlns="http://www.w3.org/2000/svg" width="1440" height="900"><path d="M688,472L625,565L760,499Z" fill="#c52b3d" stroke="#c52b3d" stroke-width="1.51"/><path d="M625,565L793,608L760,499Z" fill="#be273d" stroke="#be273d" stroke-width="1.51"/><path d="M716,677L782,642L793,608Z" fill="#b2213b" stroke="#b2213b" stroke-width="1.51"/><path d="M625,565L716,677L793,608Z" fill="#b9253c" stroke="#b9253c" stroke-width="1.51"/><path d="M978,530L843,524L930,717Z" fill="#ac1e3a" stroke="#ac1e3a" stroke-width="1.51"/><path d="M793,608L843,524L760,499Z" fill="#ba253c" stroke="#ba253c" stroke-width="1.51"/><path d="M760,499L740,296L688,472Z" fill="#cc2e3e" stroke="#cc2e3e" stroke-width="1.51"/><path d="M688,472L573,451L625,565Z" fill="#c92d3d" stroke="#c92d3d" stroke-width="1.51"/><path d="M625,565L602,676L716,677Z" fill="#b9253b" stroke="#b9253b" stroke-width="1.51"/><path d="M507,602L602,676L625,565Z" fill="#be283b" stroke="#be283b" stroke-width="1.51"/><path d="M843,524L859,481L760,499Z" fill="#be263c" stroke="#be263c" stroke-width="1.51"/><path d="M688,472L714,282L573,451Z" fill="#d0313e" stroke="#d0313e" stroke-width="1.51"/><path d="M573,451L507,602L625,565Z" fill="#c72d3c" stroke="#c72d3c" stroke-width="1.51"/><path d="M716,677L729,767L782,642Z" fill="#af1e3a" stroke="#af1e3a" stroke-width="1.51"/><path d="M930,717L843,524L793,608Z" fill="#af1f3a" stroke="#af1f3a" stroke-width="1.51"/><path d="M602,676L729,767L716,677Z" fill="#b1203a" stroke="#b1203a" stroke-width="1.51"/><path d="M859,481L740,296L760,499Z" fill="#c72c3e" stroke="#c72c3e" stroke-width="1.51"/><path d="M740,296L714,282L688,472Z" fill="#d0313e" stroke="#d0313e" stroke-width="1.51"/><path d="M573,451L459,426L507,602Z" fill="#ce313d" stroke="#ce313d" stroke-width="1.51"/><path d="M580,280L459,426L573,451Z" fill="#d5353d" stroke="#d5353d" stroke-width="1.51"/><path d="M843,524L978,530L859,481Z" fill="#b7233b" stroke="#b7233b" stroke-width="1.51"/><path d="M859,481L871,301L740,296Z" fill="#c82d3d" stroke="#c82d3d" stroke-width="1.51"/><path d="M930,717L793,608L782,642Z" fill="#ac1d3a" stroke="#ac1d3a" stroke-width="1.51"/><path d="M882,776L930,717L782,642Z" fill="#a41939" stroke="#a41939" stroke-width="1.51"/><path d="M729,767L882,776L782,642Z" fill="#a71b39" stroke="#a71b39" stroke-width="1.51"/><path d="M714,282L580,280L573,451Z" fill="#d5353d" stroke="#d5353d" stroke-width="1.51"/><path d="M602,676L635,847L729,767Z" fill="#ab1e39" stroke="#ab1e39" stroke-width="1.51"/><path d="M507,602L465,732L602,676Z" fill="#ba273a" stroke="#ba273a" stroke-width="1.51"/><path d="M384,598L465,732L507,602Z" fill="#c02a3a" stroke="#c02a3a" stroke-width="1.51"/><path d="M1014,365L871,301L859,481Z" fill="#c0293c" stroke="#c0293c" stroke-width="1.51"/><path d="M740,296L728,236L714,282Z" fill="#d4343d" stroke="#d4343d" stroke-width="1.51"/><path d="M492,830L635,847L602,676Z" fill="#ab2039" stroke="#ab2039" stroke-width="1.51"/><path d="M729,767L893,867L882,776Z" fill="#9b1838" stroke="#9b1838" stroke-width="1.51"/><path d="M984,741L960,717L930,717Z" fill="#9b1437" stroke="#9b1437" stroke-width="1.51"/><path d="M930,717L960,717L978,530Z" fill="#a31939" stroke="#a31939" stroke-width="1.51"/><path d="M714,282L641,203L580,280Z" fill="#d9373d" stroke="#d9373d" stroke-width="1.51"/><path d="M871,301L728,236L740,296Z" fill="#d0323d" stroke="#d0323d" stroke-width="1.51"/><path d="M459,426L384,598L507,602Z" fill="#cb303c" stroke="#cb303c" stroke-width="1.51"/><path d="M635,847L676,877L729,767Z" fill="#a11e39" stroke="#a11e39" stroke-width="1.51"/><path d="M559,900L676,877L635,847Z" fill="#9c2138" stroke="#9c2138" stroke-width="1.51"/><path d="M465,732L492,830L602,676Z" fill="#b22339" stroke="#b22339" stroke-width="1.51"/><path d="M325,718L452,773L465,732Z" fill="#b72639" stroke="#b72639" stroke-width="1.51"/><path d="M882,776L984,741L930,717Z" fill="#9b1438" stroke="#9b1438" stroke-width="1.51"/><path d="M960,717L1074,569L978,530Z" fill="#a51a39" stroke="#a51a39" stroke-width="1.51"/><path d="M893,867L984,741L882,776Z" fill="#961437" stroke="#961437" stroke-width="1.51"/><path d="M580,280L418,292L459,426Z" fill="#da393d" stroke="#da393d" stroke-width="1.51"/><path d="M728,236L641,203L714,282Z" fill="#d8373d" stroke="#d8373d" stroke-width="1.51"/><path d="M452,773L492,830L465,732Z" fill="#b02339" stroke="#b02339" stroke-width="1.51"/><path d="M1014,365L911,268L871,301Z" fill="#c32b3c" stroke="#c32b3c" stroke-width="1.51"/><path d="M871,301L830,128L728,236Z" fill="#d1333c" stroke="#d1333c" stroke-width="1.51"/><path d="M728,236L709,123L641,203Z" fill="#db393d" stroke="#db393d" stroke-width="1.51"/><path d="M1049,405L1014,365L978,530Z" fill="#b6223b" stroke="#b6223b" stroke-width="1.51"/><path d="M978,530L1014,365L859,481Z" fill="#b8243c" stroke="#b8243c" stroke-width="1.51"/><path d="M795,946L893,867L729,767Z" fill="#951b37" stroke="#951b37" stroke-width="1.51"/><path d="M984,741L1074,569L960,717Z" fill="#9d1538" stroke="#9d1538" stroke-width="1.51"/><path d="M1074,569L1049,405L978,530Z" fill="#ae1e3a" stroke="#ae1e3a" stroke-width="1.51"/><path d="M492,830L559,900L635,847Z" fill="#a12238" stroke="#a12238" stroke-width="1.51"/><path d="M676,877L795,946L729,767Z" fill="#991e38" stroke="#991e38" stroke-width="1.51"/><path d="M459,426L311,560L384,598Z" fill="#cf323c" stroke="#cf323c" stroke-width="1.51"/><path d="M414,209L418,292L580,280Z" fill="#df3c3c" stroke="#df3c3c" stroke-width="1.51"/><path d="M384,598L325,718L465,732Z" fill="#be2a3a" stroke="#be2a3a" stroke-width="1.51"/><path d="M240,494L311,560L259,393Z" fill="#d9383c" stroke="#d9383c" stroke-width="1.51"/><path d="M788,990L795,946L712,1039Z" fill="#851f37" stroke="#851f37" stroke-width="1.51"/><path d="M641,203L551,166L580,280Z" fill="#dd3b3c" stroke="#dd3b3c" stroke-width="1.51"/><path d="M709,123L551,166L641,203Z" fill="#de3c3c" stroke="#de3c3c" stroke-width="1.51"/><path d="M287,915L447,962L492,830Z" fill="#a02738" stroke="#a02738" stroke-width="1.51"/><path d="M492,830L447,962L559,900Z" fill="#9e2537" stroke="#9e2537" stroke-width="1.51"/><path d="M311,560L325,718L384,598Z" fill="#c72f3b" stroke="#c72f3b" stroke-width="1.51"/><path d="M830,128L709,123L728,236Z" fill="#d9383c" stroke="#d9383c" stroke-width="1.51"/><path d="M1014,365L1003,260L911,268Z" fill="#c02a3b" stroke="#c02a3b" stroke-width="1.51"/><path d="M1116,364L1003,260L1014,365Z" fill="#ba263a" stroke="#ba263a" stroke-width="1.51"/><path d="M830,128L871,301L911,268Z" fill="#cc313c" stroke="#cc313c" stroke-width="1.51"/><path d="M903,65L830,128L911,268Z" fill="#d0333b" stroke="#d0333b" stroke-width="1.51"/><path d="M1074,569L1124,423L1049,405Z" fill="#ae1e3a" stroke="#ae1e3a" stroke-width="1.51"/><path d="M1049,405L1116,364L1014,365Z" fill="#b5243a" stroke="#b5243a" stroke-width="1.51"/><path d="M259,393L311,560L459,426Z" fill="#d8373d" stroke="#d8373d" stroke-width="1.51"/><path d="M551,166L414,209L580,280Z" fill="#e03d3c" stroke="#e03d3c" stroke-width="1.51"/><path d="M795,946L927,1072L893,867Z" fill="#811b36" stroke="#811b36" stroke-width="1.51"/><path d="M712,1039L795,946L676,877Z" fill="#8d1f38" stroke="#8d1f38" stroke-width="1.51"/><path d="M1124,423L1116,364L1049,405Z" fill="#b2213a" stroke="#b2213a" stroke-width="1.51"/><path d="M551,166L531,126L414,209Z" fill="#e33f3c" stroke="#e33f3c" stroke-width="1.51"/><path d="M709,123L531,126L551,166Z" fill="#e13e3c" stroke="#e13e3c" stroke-width="1.51"/><path d="M984,741L1127,724L1074,569Z" fill="#991337" stroke="#991337" stroke-width="1.51"/><path d="M1074,569L1223,568L1124,423Z" fill="#a41939" stroke="#a41939" stroke-width="1.51"/><path d="M1121,812L1127,724L984,741Z" fill="#8f0d35" stroke="#8f0d35" stroke-width="1.51"/><path d="M1050,854L984,741L893,867Z" fill="#8e1336" stroke="#8e1336" stroke-width="1.51"/><path d="M259,393L459,426L300,303Z" fill="#de3b3c" stroke="#de3b3c" stroke-width="1.51"/><path d="M311,560L229,577L325,718Z" fill="#c9303a" stroke="#c9303a" stroke-width="1.51"/><path d="M1044,981L1050,854L893,867Z" fill="#821535" stroke="#821535" stroke-width="1.51"/><path d="M300,303L459,426L418,292Z" fill="#de3b3c" stroke="#de3b3c" stroke-width="1.51"/><path d="M346,193L300,303L418,292Z" fill="#e3403c" stroke="#e3403c" stroke-width="1.51"/><path d="M240,494L229,577L311,560Z" fill="#d2353b" stroke="#d2353b" stroke-width="1.51"/><path d="M559,900L712,1039L676,877Z" fill="#932138" stroke="#932138" stroke-width="1.51"/><path d="M287,915L492,830L452,773Z" fill="#aa2638" stroke="#aa2638" stroke-width="1.51"/><path d="M268,820L452,773L325,718Z" fill="#b62738" stroke="#b62738" stroke-width="1.51"/><path d="M447,962L518,998L559,900Z" fill="#952437" stroke="#952437" stroke-width="1.51"/><path d="M414,209L346,193L418,292Z" fill="#e4403b" stroke="#e4403b" stroke-width="1.51"/><path d="M531,126L399,161L414,209Z" fill="#e5413c" stroke="#e5413c" stroke-width="1.51"/><path d="M518,998L712,1039L559,900Z" fill="#8f2337" stroke="#8f2337" stroke-width="1.51"/><path d="M927,1072L1044,981L893,867Z" fill="#7a1835" stroke="#7a1835" stroke-width="1.51"/><path d="M1050,854L1121,812L984,741Z" fill="#8b0f35" stroke="#8b0f35" stroke-width="1.51"/><path d="M399,161L346,193L414,209Z" fill="#e7423b" stroke="#e7423b" stroke-width="1.51"/><path d="M300,303L211,282L259,393Z" fill="#e4403c" stroke="#e4403c" stroke-width="1.51"/><path d="M203,716L233,738L325,718Z" fill="#bf2d39" stroke="#bf2d39" stroke-width="1.51"/><path d="M233,738L268,820L325,718Z" fill="#ba2938" stroke="#ba2938" stroke-width="1.51"/><path d="M518,998L467,1014L712,1039Z" fill="#8a2437" stroke="#8a2437" stroke-width="1.51"/><path d="M447,962L467,1014L518,998Z" fill="#912637" stroke="#912637" stroke-width="1.51"/><path d="M278,1016L467,1014L447,962Z" fill="#932836" stroke="#932836" stroke-width="1.51"/><path d="M1261,673L1223,568L1127,724Z" fill="#901036" stroke="#901036" stroke-width="1.51"/><path d="M1127,724L1223,568L1074,569Z" fill="#991337" stroke="#991337" stroke-width="1.51"/><path d="M1124,423L1204,392L1116,364Z" fill="#ae1f39" stroke="#ae1f39" stroke-width="1.51"/><path d="M1116,364L1115,228L1003,260Z" fill="#b92739" stroke="#b92739" stroke-width="1.51"/><path d="M1003,260L903,65L911,268Z" fill="#c9303a" stroke="#c9303a" stroke-width="1.51"/><path d="M1241,321L1115,228L1116,364Z" fill="#b22339" stroke="#b22339" stroke-width="1.51"/><path d="M830,128L828,29L709,123Z" fill="#da4444" stroke="#da4444" stroke-width="1.51"/><path d="M709,123L609,-19L531,126Z" fill="#e44d46" stroke="#e44d46" stroke-width="1.51"/><path d="M1088,160L903,65L1003,260Z" fill="#c62f3a" stroke="#c62f3a" stroke-width="1.51"/><path d="M229,577L203,716L325,718Z" fill="#c5303a" stroke="#c5303a" stroke-width="1.51"/><path d="M233,738L88,750L268,820Z" fill="#bc3740" stroke="#bc3740" stroke-width="1.51"/><path d="M57,584L203,716L229,577Z" fill="#cd4546" stroke="#cd4546" stroke-width="1.51"/><path d="M1223,568L1204,392L1124,423Z" fill="#a71b39" stroke="#a71b39" stroke-width="1.51"/><path d="M903,65L828,29L830,128Z" fill="#d64746" stroke="#d64746" stroke-width="1.51"/><path d="M531,126L410,-47L399,161Z" fill="#eb5145" stroke="#eb5145" stroke-width="1.51"/><path d="M1115,228L1088,160L1003,260Z" fill="#be2a3a" stroke="#be2a3a" stroke-width="1.51"/><path d="M1246,180L1088,160L1115,228Z" fill="#b92939" stroke="#b92939" stroke-width="1.51"/><path d="M927,1072L795,946L788,990Z" fill="#7e1c36" stroke="#7e1c36" stroke-width="1.51"/><path d="M1050,854L1085,946L1121,812Z" fill="#7f1034" stroke="#7f1034" stroke-width="1.51"/><path d="M268,820L287,915L452,773Z" fill="#ad2838" stroke="#ad2838" stroke-width="1.51"/><path d="M236,982L287,915L173,927Z" fill="#a1303a" stroke="#a1303a" stroke-width="1.51"/><path d="M1044,981L1085,946L1050,854Z" fill="#791334" stroke="#791334" stroke-width="1.51"/><path d="M1205,832L1261,673L1127,724Z" fill="#880935" stroke="#880935" stroke-width="1.51"/><path d="M346,193L211,282L300,303Z" fill="#e7423b" stroke="#e7423b" stroke-width="1.51"/><path d="M259,393L111,435L240,494Z" fill="#df4644" stroke="#df4644" stroke-width="1.51"/><path d="M240,494L111,435L229,577Z" fill="#da4544" stroke="#da4544" stroke-width="1.51"/><path d="M712,1039L927,1072L788,990Z" fill="#7c1d36" stroke="#7c1d36" stroke-width="1.51"/><path d="M59,1079L927,1072L712,1039Z" fill="#842436" stroke="#842436" stroke-width="1.51"/><path d="M1333,354L1241,321L1204,392Z" fill="#a62138" stroke="#a62138" stroke-width="1.51"/><path d="M1205,832L1127,724L1121,812Z" fill="#860a35" stroke="#860a35" stroke-width="1.51"/><path d="M671,-78L609,-19L709,123Z" fill="#e65e54" stroke="#e65e54" stroke-width="1.51"/><path d="M399,161L298,122L346,193Z" fill="#ea443b" stroke="#ea443b" stroke-width="1.51"/><path d="M346,193L298,122L211,282Z" fill="#ea443b" stroke="#ea443b" stroke-width="1.51"/><path d="M1205,906L1205,832L1121,812Z" fill="#7c0c33" stroke="#7c0c33" stroke-width="1.51"/><path d="M308,-13L298,122L399,161Z" fill="#ef5243" stroke="#ef5243" stroke-width="1.51"/><path d="M1340,420L1204,392L1223,568Z" fill="#a01c39" stroke="#a01c39" stroke-width="1.51"/><path d="M1204,392L1241,321L1116,364Z" fill="#ad2039" stroke="#ad2039" stroke-width="1.51"/><path d="M107,251L137,365L211,282Z" fill="#ea5649" stroke="#ea5649" stroke-width="1.51"/><path d="M211,282L137,365L259,393Z" fill="#e54a43" stroke="#e54a43" stroke-width="1.51"/><path d="M828,29L671,-78L709,123Z" fill="#e25851" stroke="#e25851" stroke-width="1.51"/><path d="M903,65L915,-68L828,29Z" fill="#d75753" stroke="#d75753" stroke-width="1.51"/><path d="M1088,160L1054,65L903,65Z" fill="#c83b40" stroke="#c83b40" stroke-width="1.51"/><path d="M1135,1L1054,65L1202,56Z" fill="#c3464a" stroke="#c3464a" stroke-width="1.51"/><path d="M137,365L111,435L259,393Z" fill="#e44e47" stroke="#e44e47" stroke-width="1.51"/><path d="M1261,673L1303,603L1223,568Z" fill="#8f1436" stroke="#8f1436" stroke-width="1.51"/><path d="M1389,672L1303,603L1261,673Z" fill="#861335" stroke="#861335" stroke-width="1.51"/><path d="M609,-19L516,-36L531,126Z" fill="#e95d51" stroke="#e95d51" stroke-width="1.51"/><path d="M1409,771L1389,672L1261,673Z" fill="#7d1134" stroke="#7d1134" stroke-width="1.51"/><path d="M1085,946L1205,906L1121,812Z" fill="#790f33" stroke="#790f33" stroke-width="1.51"/><path d="M1156,993L1205,906L1085,946Z" fill="#701033" stroke="#701033" stroke-width="1.51"/><path d="M1156,993L1085,946L1044,981Z" fill="#701333" stroke="#701333" stroke-width="1.51"/><path d="M609,-19L561,-98L516,-36Z" fill="#ec6f60" stroke="#ec6f60" stroke-width="1.51"/><path d="M732,-98L671,-78L828,29Z" fill="#e46960" stroke="#e46960" stroke-width="1.51"/><path d="M287,915L278,1016L447,962Z" fill="#9a2a37" stroke="#9a2a37" stroke-width="1.51"/><path d="M467,1014L59,1079L712,1039Z" fill="#8c2836" stroke="#8c2836" stroke-width="1.51"/><path d="M236,982L278,1016L287,915Z" fill="#9c2b37" stroke="#9c2b37" stroke-width="1.51"/><path d="M287,915L268,820L173,927Z" fill="#a92f39" stroke="#a92f39" stroke-width="1.51"/><path d="M88,750L233,738L203,716Z" fill="#c03d43" stroke="#c03d43" stroke-width="1.51"/><path d="M1199,1060L1156,993L1044,981Z" fill="#691332" stroke="#691332" stroke-width="1.51"/><path d="M111,435L57,584L229,577Z" fill="#d84f4c" stroke="#d84f4c" stroke-width="1.51"/><path d="M58,704L88,750L203,716Z" fill="#c4484b" stroke="#c4484b" stroke-width="1.51"/><path d="M1054,65L970,-38L903,65Z" fill="#cf4e4e" stroke="#cf4e4e" stroke-width="1.51"/><path d="M671,-78L561,-98L609,-19Z" fill="#eb7163" stroke="#eb7163" stroke-width="1.51"/><path d="M837,-142L732,-98L828,29Z" fill="#e16c63" stroke="#e16c63" stroke-width="1.51"/><path d="M88,750L173,927L268,820Z" fill="#b33b42" stroke="#b33b42" stroke-width="1.51"/><path d="M1303,603L1340,420L1223,568Z" fill="#951937" stroke="#951937" stroke-width="1.51"/><path d="M1241,321L1246,180L1115,228Z" fill="#b22539" stroke="#b22539" stroke-width="1.51"/><path d="M970,-38L915,-68L903,65Z" fill="#d55b57" stroke="#d55b57" stroke-width="1.51"/><path d="M298,122L203,120L211,282Z" fill="#ee4a3d" stroke="#ee4a3d" stroke-width="1.51"/><path d="M137,365L11,389L111,435Z" fill="#e65d53" stroke="#e65d53" stroke-width="1.51"/><path d="M111,435L-21,526L57,584Z" fill="#dd5e57" stroke="#dd5e57" stroke-width="1.51"/><path d="M308,-13L203,120L298,122Z" fill="#f25745" stroke="#f25745" stroke-width="1.51"/><path d="M1367,252L1246,180L1241,321Z" fill="#a92638" stroke="#a92638" stroke-width="1.51"/><path d="M1054,65L1135,1L970,-38Z" fill="#ca5151" stroke="#ca5151" stroke-width="1.51"/><path d="M203,120L156,178L211,282Z" fill="#ee5244" stroke="#ee5244" stroke-width="1.51"/><path d="M88,750L82,928L173,927Z" fill="#b0454a" stroke="#b0454a" stroke-width="1.51"/><path d="M57,584L58,704L203,716Z" fill="#ca4c4d" stroke="#ca4c4d" stroke-width="1.51"/><path d="M516,-36L410,-47L531,126Z" fill="#ed6152" stroke="#ed6152" stroke-width="1.51"/><path d="M732,-98L561,-98L671,-78Z" fill="#ea7668" stroke="#ea7668" stroke-width="1.51"/><path d="M1340,420L1333,354L1204,392Z" fill="#a12038" stroke="#a12038" stroke-width="1.51"/><path d="M449,-138L410,-47L516,-36Z" fill="#f17664" stroke="#f17664" stroke-width="1.51"/><path d="M156,178L107,251L211,282Z" fill="#ed5749" stroke="#ed5749" stroke-width="1.51"/><path d="M270,-142L308,-13L410,-47Z" fill="#f67862" stroke="#f67862" stroke-width="1.51"/><path d="M410,-47L308,-13L399,161Z" fill="#f05f4e" stroke="#f05f4e" stroke-width="1.51"/><path d="M203,120L67,97L156,178Z" fill="#f45e4a" stroke="#f45e4a" stroke-width="1.51"/><path d="M57,584L25,713L58,704Z" fill="#cc5755" stroke="#cc5755" stroke-width="1.51"/><path d="M58,704L25,713L88,750Z" fill="#c55253" stroke="#c55253" stroke-width="1.51"/><path d="M-88,671L25,713L57,584Z" fill="#ce5f5c" stroke="#ce5f5c" stroke-width="1.51"/><path d="M1202,56L1054,65L1088,160Z" fill="#c13940" stroke="#c13940" stroke-width="1.51"/><path d="M1052,-180L837,-142L915,-68Z" fill="#d8756e" stroke="#d8756e" stroke-width="1.51"/><path d="M1303,603L1495,549L1340,420Z" fill="#8d1b37" stroke="#8d1b37" stroke-width="1.51"/><path d="M1486,329L1367,252L1333,354Z" fill="#9b2538" stroke="#9b2538" stroke-width="1.51"/><path d="M1409,771L1261,673L1205,832Z" fill="#7d0c33" stroke="#7d0c33" stroke-width="1.51"/><path d="M1326,900L1205,832L1205,906Z" fill="#710e33" stroke="#710e33" stroke-width="1.51"/><path d="M1246,180L1202,56L1088,160Z" fill="#ba2a38" stroke="#ba2a38" stroke-width="1.51"/><path d="M1306,112L1202,56L1246,180Z" fill="#b3303b" stroke="#b3303b" stroke-width="1.51"/><path d="M1052,-180L915,-68L970,-38Z" fill="#d36c66" stroke="#d36c66" stroke-width="1.51"/><path d="M915,-68L837,-142L828,29Z" fill="#dc6860" stroke="#dc6860" stroke-width="1.51"/><path d="M732,-98L837,-142L561,-98Z" fill="#e8796d" stroke="#e8796d" stroke-width="1.51"/><path d="M107,251L11,389L137,365Z" fill="#ea6053" stroke="#ea6053" stroke-width="1.51"/><path d="M-27,432L11,389L-141,419Z" fill="#e97366" stroke="#e97366" stroke-width="1.51"/><path d="M1156,993L1199,1060L1205,906Z" fill="#681132" stroke="#681132" stroke-width="1.51"/><path d="M927,1072L1199,1060L1044,981Z" fill="#6a1633" stroke="#6a1633" stroke-width="1.51"/><path d="M1321,1051L1326,900L1205,906Z" fill="#631132" stroke="#631132" stroke-width="1.51"/><path d="M-27,432L-21,526L111,435Z" fill="#e4655c" stroke="#e4655c" stroke-width="1.51"/><path d="M173,927L59,1079L236,982Z" fill="#9c3d43" stroke="#9c3d43" stroke-width="1.51"/><path d="M236,982L59,1079L278,1016Z" fill="#96373e" stroke="#96373e" stroke-width="1.51"/><path d="M-53,764L82,928L88,750Z" fill="#ba5254" stroke="#ba5254" stroke-width="1.51"/><path d="M1486,329L1333,354L1340,420Z" fill="#982238" stroke="#982238" stroke-width="1.51"/><path d="M1333,354L1367,252L1241,321Z" fill="#a32438" stroke="#a32438" stroke-width="1.51"/><path d="M561,-98L449,-138L516,-36Z" fill="#f07967" stroke="#f07967" stroke-width="1.51"/><path d="M837,-142L449,-138L561,-98Z" fill="#ec7e6f" stroke="#ec7e6f" stroke-width="1.51"/><path d="M11,389L-27,432L111,435Z" fill="#e7665b" stroke="#e7665b" stroke-width="1.51"/><path d="M-11,231L11,389L107,251Z" fill="#ee6959" stroke="#ee6959" stroke-width="1.51"/><path d="M1389,672L1495,549L1303,603Z" fill="#831735" stroke="#831735" stroke-width="1.51"/><path d="M1326,900L1409,771L1205,832Z" fill="#710f33" stroke="#710f33" stroke-width="1.51"/><path d="M1367,252L1306,112L1246,180Z" fill="#aa2938" stroke="#aa2938" stroke-width="1.51"/><path d="M1221,-45L1149,-79L1135,1Z" fill="#c35959" stroke="#c35959" stroke-width="1.51"/><path d="M1221,-45L1135,1L1202,56Z" fill="#c04d50" stroke="#c04d50" stroke-width="1.51"/><path d="M1135,1L1149,-79L970,-38Z" fill="#c95b5a" stroke="#c95b5a" stroke-width="1.51"/><path d="M156,178L67,97L107,251Z" fill="#f2614f" stroke="#f2614f" stroke-width="1.51"/><path d="M181,-46L67,97L203,120Z" fill="#f76f58" stroke="#f76f58" stroke-width="1.51"/><path d="M181,-46L203,120L308,-13Z" fill="#f66a54" stroke="#f66a54" stroke-width="1.51"/><path d="M67,97L-11,231L107,251Z" fill="#f36a56" stroke="#f36a56" stroke-width="1.51"/><path d="M25,713L-53,764L88,750Z" fill="#c55758" stroke="#c55758" stroke-width="1.51"/><path d="M-88,671L-53,764L25,713Z" fill="#c96260" stroke="#c96260" stroke-width="1.51"/><path d="M-88,671L57,584L-101,615Z" fill="#d36762" stroke="#d36762" stroke-width="1.51"/><path d="M1303,19L1221,-45L1202,56Z" fill="#b94b4e" stroke="#b94b4e" stroke-width="1.51"/><path d="M270,-142L181,-46L308,-13Z" fill="#fa7b63" stroke="#fa7b63" stroke-width="1.51"/><path d="M1494,724L1495,549L1389,672Z" fill="#781634" stroke="#781634" stroke-width="1.51"/><path d="M-101,615L-21,526L-141,419Z" fill="#e0746a" stroke="#e0746a" stroke-width="1.51"/><path d="M-101,615L57,584L-21,526Z" fill="#d96660" stroke="#d96660" stroke-width="1.51"/><path d="M1505,816L1494,724L1409,771Z" fill="#6b1032" stroke="#6b1032" stroke-width="1.51"/><path d="M1409,771L1494,724L1389,672Z" fill="#741133" stroke="#741133" stroke-width="1.51"/><path d="M1199,1060L1321,1051L1205,906Z" fill="#601231" stroke="#601231" stroke-width="1.51"/><path d="M1306,112L1303,19L1202,56Z" fill="#b53e45" stroke="#b53e45" stroke-width="1.51"/><path d="M1494,142L1303,19L1306,112Z" fill="#a9373f" stroke="#a9373f" stroke-width="1.51"/><path d="M1494,142L1306,112L1367,252Z" fill="#a32a37" stroke="#a32a37" stroke-width="1.51"/><path d="M-141,419L-21,526L-27,432Z" fill="#e67368" stroke="#e67368" stroke-width="1.51"/><path d="M1495,549L1498,433L1340,420Z" fill="#8c1e37" stroke="#8c1e37" stroke-width="1.51"/><path d="M1149,-79L1052,-180L970,-38Z" fill="#cd6966" stroke="#cd6966" stroke-width="1.51"/><path d="M837,-142L1052,-180L449,-138Z" fill="#e48074" stroke="#e48074" stroke-width="1.51"/><path d="M1185,-159L1052,-180L1149,-79Z" fill="#c86f6d" stroke="#c86f6d" stroke-width="1.51"/><path d="M1185,-159L1149,-79L1221,-45Z" fill="#c36464" stroke="#c36464" stroke-width="1.51"/><path d="M1495,549L1536,541L1498,433Z" fill="#821d36" stroke="#821d36" stroke-width="1.51"/><path d="M1505,816L1409,771L1326,900Z" fill="#681132" stroke="#681132" stroke-width="1.51"/><path d="M449,-138L270,-142L410,-47Z" fill="#f6816b" stroke="#f6816b" stroke-width="1.51"/><path d="M234,-149L270,-142L449,-138Z" fill="#f98972" stroke="#f98972" stroke-width="1.51"/><path d="M1498,433L1486,329L1340,420Z" fill="#922137" stroke="#922137" stroke-width="1.51"/><path d="M82,928L59,1079L173,927Z" fill="#a0464a" stroke="#a0464a" stroke-width="1.51"/><path d="M278,1016L59,1079L467,1014Z" fill="#922c36" stroke="#922c36" stroke-width="1.51"/><path d="M-69,899L20,1026L82,928Z" fill="#a55356" stroke="#a55356" stroke-width="1.51"/><path d="M-69,899L82,928L-53,764Z" fill="#b4595a" stroke="#b4595a" stroke-width="1.51"/><path d="M20,1026L59,1079L82,928Z" fill="#9b4c51" stroke="#9b4c51" stroke-width="1.51"/><path d="M-88,671L-110,743L-53,764Z" fill="#c86866" stroke="#c86866" stroke-width="1.51"/><path d="M-101,615L-110,743L-88,671Z" fill="#ce6d69" stroke="#ce6d69" stroke-width="1.51"/><path d="M1498,433L1602,359L1486,329Z" fill="#8a2337" stroke="#8a2337" stroke-width="1.51"/><path d="M1589,666L1536,541L1495,549Z" fill="#771a35" stroke="#771a35" stroke-width="1.51"/><path d="M270,-142L234,-149L181,-46Z" fill="#fc896f" stroke="#fc896f" stroke-width="1.51"/><path d="M181,-46L42,11L67,97Z" fill="#fa8067" stroke="#fa8067" stroke-width="1.51"/><path d="M1052,-180L234,-149L449,-138Z" fill="#ef8675" stroke="#ef8675" stroke-width="1.51"/><path d="M1494,142L1484,232L1592,164Z" fill="#952a37" stroke="#952a37" stroke-width="1.51"/><path d="M1486,329L1484,232L1367,252Z" fill="#982637" stroke="#982637" stroke-width="1.51"/><path d="M-110,743L-69,899L-53,764Z" fill="#be6464" stroke="#be6464" stroke-width="1.51"/><path d="M1494,724L1589,666L1495,549Z" fill="#721734" stroke="#721734" stroke-width="1.51"/><path d="M1513,962L1505,816L1326,900Z" fill="#5c1231" stroke="#5c1231" stroke-width="1.51"/><path d="M117,-142L42,11L181,-46Z" fill="#fc8e75" stroke="#fc8e75" stroke-width="1.51"/><path d="M67,97L-47,122L-11,231Z" fill="#f7745d" stroke="#f7745d" stroke-width="1.51"/><path d="M-192,387L-141,419L-166,230Z" fill="#f08776" stroke="#f08776" stroke-width="1.51"/><path d="M-11,231L-141,419L11,389Z" fill="#ed7565" stroke="#ed7565" stroke-width="1.51"/><path d="M-101,615L-192,387L-110,743Z" fill="#d9776f" stroke="#d9776f" stroke-width="1.51"/><path d="M1337,-184L1221,-45L1303,19Z" fill="#b85d5e" stroke="#b85d5e" stroke-width="1.51"/><path d="M1337,-184L1185,-159L1221,-45Z" fill="#bd6a6a" stroke="#bd6a6a" stroke-width="1.51"/><path d="M-63,46L-47,122L67,97Z" fill="#fb8269" stroke="#fb8269" stroke-width="1.51"/><path d="M1484,232L1494,142L1367,252Z" fill="#9b2837" stroke="#9b2837" stroke-width="1.51"/><path d="M1602,359L1484,232L1486,329Z" fill="#8e2537" stroke="#8e2537" stroke-width="1.51"/><path d="M1613,787L1589,666L1494,724Z" fill="#661332" stroke="#661332" stroke-width="1.51"/><path d="M1536,541L1609,460L1498,433Z" fill="#821f37" stroke="#821f37" stroke-width="1.51"/><path d="M-63,46L-88,89L-47,122Z" fill="#fb8a71" stroke="#fb8a71" stroke-width="1.51"/><path d="M234,-149L117,-142L181,-46Z" fill="#fc9177" stroke="#fc9177" stroke-width="1.51"/><path d="M-141,419L-192,387L-101,615Z" fill="#e67e73" stroke="#e67e73" stroke-width="1.51"/><path d="M-166,230L-141,419L-11,231Z" fill="#f1806d" stroke="#f1806d" stroke-width="1.51"/><path d="M1504,1015L1513,962L1326,900Z" fill="#531330" stroke="#531330" stroke-width="1.51"/><path d="M1505,816L1613,787L1494,724Z" fill="#641132" stroke="#641132" stroke-width="1.51"/><path d="M-47,122L-166,230L-11,231Z" fill="#f67e68" stroke="#f67e68" stroke-width="1.51"/><path d="M-63,46L67,97L42,11Z" fill="#fb856c" stroke="#fb856c" stroke-width="1.51"/><path d="M1589,666L1609,460L1536,541Z" fill="#771b35" stroke="#771b35" stroke-width="1.51"/><path d="M-7,-137L-63,46L42,11Z" fill="#fe9a80" stroke="#fe9a80" stroke-width="1.51"/><path d="M-69,899L-93,1037L20,1026Z" fill="#a05b5e" stroke="#a05b5e" stroke-width="1.51"/><path d="M20,1026L-93,1037L59,1079Z" fill="#975458" stroke="#975458" stroke-width="1.51"/><path d="M-110,743L-135,928L-69,899Z" fill="#b66767" stroke="#b66767" stroke-width="1.51"/><path d="M-192,387L-135,928L-110,743Z" fill="#ce736f" stroke="#ce736f" stroke-width="1.51"/><path d="M1609,460L1602,359L1498,433Z" fill="#842237" stroke="#842237" stroke-width="1.51"/><path d="M-88,89L-166,230L-47,122Z" fill="#fa846b" stroke="#fa846b" stroke-width="1.51"/><path d="M1321,1051L1504,1015L1326,900Z" fill="#551230" stroke="#551230" stroke-width="1.51"/><path d="M1513,962L1566,891L1505,816Z" fill="#551330" stroke="#551330" stroke-width="1.51"/><path d="M1536,1058L1566,891L1513,962Z" fill="#4a1330" stroke="#4a1330" stroke-width="1.51"/><path d="M-135,928L-93,1037L-69,899Z" fill="#a66366" stroke="#a66366" stroke-width="1.51"/><path d="M1566,891L1613,787L1505,816Z" fill="#5a1231" stroke="#5a1231" stroke-width="1.51"/><path d="M1589,666L1613,787L1609,460Z" fill="#6c1733" stroke="#6c1733" stroke-width="1.51"/><path d="M1524,-70L1337,-184L1303,19Z" fill="#ad5d5f" stroke="#ad5d5f" stroke-width="1.51"/><path d="M1185,-159L1337,-184L1052,-180Z" fill="#c47474" stroke="#c47474" stroke-width="1.51"/><path d="M1537,16L1303,19L1494,142Z" fill="#a33e44" stroke="#a33e44" stroke-width="1.51"/><path d="M1591,94L1592,164L1619,-128Z" fill="#934047" stroke="#934047" stroke-width="1.51"/><path d="M1602,359L1592,164L1484,232Z" fill="#8e2836" stroke="#8e2836" stroke-width="1.51"/><path d="M1504,1015L1536,1058L1513,962Z" fill="#46132f" stroke="#46132f" stroke-width="1.51"/><path d="M1566,891L1536,1058L1613,787Z" fill="#4e1330" stroke="#4e1330" stroke-width="1.51"/><path d="M1321,1051L1536,1058L1504,1015Z" fill="#48132f" stroke="#48132f" stroke-width="1.51"/><path d="M1199,1060L1536,1058L1321,1051Z" fill="#4f1230" stroke="#4f1230" stroke-width="1.51"/><path d="M927,1072L1536,1058L1199,1060Z" fill="#5a1230" stroke="#5a1230" stroke-width="1.51"/><path d="M-88,89L-157,-1L-166,230Z" fill="#fc9076" stroke="#fc9076" stroke-width="1.51"/><path d="M-63,46L-157,-1L-88,89Z" fill="#fd987e" stroke="#fd987e" stroke-width="1.51"/><path d="M117,-142L-7,-137L42,11Z" fill="#fe9e84" stroke="#fe9e84" stroke-width="1.51"/><path d="M-155,-177L-7,-137L117,-142Z" fill="#ffb59c" stroke="#ffb59c" stroke-width="1.51"/><path d="M1591,94L1537,16L1494,142Z" fill="#98383f" stroke="#98383f" stroke-width="1.51"/><path d="M1537,16L1523,-17L1303,19Z" fill="#a34a4e" stroke="#a34a4e" stroke-width="1.51"/><path d="M1619,-128L1524,-70L1523,-17Z" fill="#9b595c" stroke="#9b595c" stroke-width="1.51"/><path d="M1592,164L1591,94L1494,142Z" fill="#942c36" stroke="#942c36" stroke-width="1.51"/><path d="M1619,-128L1592,164L1602,359Z" fill="#902b36" stroke="#902b36" stroke-width="1.51"/><path d="M-7,-137L-157,-1L-63,46Z" fill="#ffa48a" stroke="#ffa48a" stroke-width="1.51"/><path d="M-166,230L-157,-1L-192,387Z" fill="#f88d76" stroke="#f88d76" stroke-width="1.51"/><path d="M1619,-128L1523,-17L1537,16Z" fill="#9a5357" stroke="#9a5357" stroke-width="1.51"/><path d="M1523,-17L1524,-70L1303,19Z" fill="#a55054" stroke="#a55054" stroke-width="1.51"/><path d="M-7,-137L-155,-177L-157,-1Z" fill="#ffb99f" stroke="#ffb99f" stroke-width="1.51"/><path d="M-157,-1L-155,-177L-192,387Z" fill="#fe9d83" stroke="#fe9d83" stroke-width="1.51"/><path d="M234,-149L-155,-177L117,-142Z" fill="#ffab91" stroke="#ffab91" stroke-width="1.51"/><path d="M1052,-180L-155,-177L234,-149Z" fill="#f88e77" stroke="#f88e77" stroke-width="1.51"/><path d="M1337,-184L-155,-177L1052,-180Z" fill="#e8877b" stroke="#e8877b" stroke-width="1.51"/><path d="M1613,787L1619,-128L1609,460Z" fill="#822336" stroke="#822336" stroke-width="1.51"/><path d="M1609,460L1619,-128L1602,359Z" fill="#8a2836" stroke="#8a2836" stroke-width="1.51"/><path d="M1591,94L1619,-128L1537,16Z" fill="#964b50" stroke="#964b50" stroke-width="1.51"/><path d="M1524,-70L1619,-128L1337,-184Z" fill="#a26568" stroke="#a26568" stroke-width="1.51"/></svg>