<?xml version="1.0" standalone="no"?>
<!DOCTYPE svg PUBLIC "-//W3C//DTD SVG 20010904//EN"
 "http://www.w3.org/TR/2001/REC-SVG-20010904/DTD/svg10.dtd">
<svg version="1.0" xmlns="http://www.w3.org/2000/svg"
 width="334.000000pt" height="334.000000pt" viewBox="0 0 334.000000 334.000000"
 preserveAspectRatio="xMidYMid meet">
<metadata>
Created by potrace 1.11, written by Peter Selinger 2001-2013
</metadata>
<g transform="translate(0.000000,334.000000) scale(0.100000,-0.100000)"
fill="#000000" stroke="none">
<path d="M1670 3021 c18 -7 7 -8 -40 -7 -36 2 -78 -1 -95 -6 -16 -5 -43 -11
-59 -13 -15 -3 -35 -12 -43 -20 -8 -9 -33 -15 -59 -15 -29 0 -50 -6 -62 -18
-10 -10 -26 -22 -36 -25 -9 -4 -15 -11 -11 -16 3 -5 -3 -12 -14 -16 -11 -3
-25 -13 -33 -23 -11 -15 -11 -15 2 -6 8 6 23 14 33 17 32 12 7 -14 -28 -29
-20 -8 -39 -27 -49 -49 -9 -19 -20 -35 -24 -35 -4 0 -13 -9 -20 -21 -8 -12 -9
-18 -3 -14 25 15 8 -15 -28 -52 -29 -29 -44 -37 -55 -31 -10 6 -16 5 -16 -2 0
-5 4 -10 9 -10 13 0 20 -128 8 -160 -12 -31 4 -138 21 -149 21 -14 32 -54 32
-116 0 -42 5 -74 15 -89 8 -13 15 -32 14 -42 -1 -10 -1 -30 0 -44 2 -23 3 -24
11 -5 8 18 9 18 10 -5 0 -19 3 -21 9 -10 5 8 14 87 21 175 6 88 15 164 18 170
3 5 5 24 4 41 -4 47 29 100 59 96 19 -2 21 0 9 8 -13 9 -7 14 12 11 4 0 5 5 2
13 -3 7 2 20 10 29 8 8 12 18 8 22 -4 5 1 5 12 1 14 -5 17 -2 12 9 -3 8 -2 14
2 13 7 -1 57 18 75 29 6 4 7 -4 3 -23 l-8 -29 28 25 c15 14 24 19 20 13 -10
-17 2 -35 17 -26 7 4 28 8 47 10 121 6 211 14 252 21 38 7 50 5 63 -7 15 -15
16 -14 9 2 -3 9 -1 18 5 18 6 1 17 2 24 3 26 2 116 -49 111 -63 -3 -10 2 -10
21 3 23 15 24 15 18 -1 -4 -9 -2 -14 3 -10 5 3 11 -23 12 -60 3 -63 2 -65 -18
-60 -17 4 -19 3 -9 -9 22 -27 -11 -16 -36 12 -14 15 -25 22 -25 15 0 -19 60
-69 105 -88 32 -13 46 -27 65 -67 14 -28 25 -58 26 -66 2 -42 18 -121 25 -126
5 -3 9 -16 9 -30 0 -14 6 -32 14 -39 9 -10 13 -35 11 -84 -1 -39 2 -68 7 -65
14 9 8 -50 -7 -70 -8 -11 -15 -29 -15 -41 0 -12 -5 -26 -11 -32 -8 -8 -7 -13
2 -18 8 -5 10 -4 5 3 -4 7 -3 12 2 12 5 0 12 -11 14 -25 3 -14 1 -25 -3 -25
-5 0 -9 5 -9 10 0 6 -8 5 -20 -2 -11 -7 -20 -17 -20 -22 0 -6 5 -5 12 2 7 7
16 12 22 12 5 0 6 -3 3 -7 -4 -3 -2 -12 3 -18 7 -8 7 -21 1 -36 -7 -18 -10
-19 -10 -6 -1 21 -21 23 -21 2 0 -8 -4 -15 -9 -15 -5 0 -7 10 -4 23 5 20 4 21
-10 7 -9 -8 -18 -26 -20 -38 -2 -13 -10 -28 -18 -33 -8 -5 -11 -9 -7 -9 3 0
-7 -14 -23 -31 -16 -17 -29 -35 -29 -40 0 -5 -7 -9 -16 -9 -9 0 -23 -8 -30
-17 -7 -10 -17 -19 -23 -19 -6 -1 -18 -2 -27 -3 -8 0 -12 -5 -9 -11 3 -5 -3
-10 -14 -10 -19 0 -46 -18 -87 -57 -7 -7 -20 -13 -28 -13 -9 0 -16 -7 -16 -16
0 -8 -4 -13 -8 -10 -5 3 -18 -5 -30 -18 -42 -49 -190 -54 -259 -10 -40 25 -25
5 17 -22 22 -15 37 -30 34 -35 -3 -5 -10 -7 -15 -4 -5 4 -9 -1 -9 -9 0 -9 6
-16 14 -16 8 0 16 -6 19 -14 13 -33 70 -49 180 -51 59 -1 110 -5 114 -8 3 -4
11 -7 17 -7 6 0 5 4 -2 9 -9 5 0 10 29 14 23 3 45 11 49 18 4 6 13 8 19 5 6
-4 11 -2 11 5 0 7 3 10 6 6 4 -3 12 -1 18 6 7 7 27 23 44 37 18 14 32 31 32
38 0 6 6 12 13 12 8 0 22 9 32 20 18 20 18 21 -1 14 -18 -6 -18 -6 1 8 11 9
29 18 40 22 17 5 20 14 20 68 0 35 2 77 4 93 4 25 6 20 12 -25 4 -30 4 -59 0
-65 -5 -5 -9 -35 -9 -65 -1 -50 -16 -102 -45 -155 -6 -11 -19 -36 -28 -55 -22
-44 -258 -284 -322 -328 -26 -18 -53 -45 -60 -61 -7 -15 -26 -40 -44 -55 -17
-15 -37 -42 -43 -61 -6 -19 -13 -35 -14 -35 -2 0 -42 39 -89 88 l-86 87 -27
110 c-22 91 -40 226 -44 330 -1 18 -4 16 -25 -10 -14 -16 -23 -36 -20 -43 3
-7 1 -11 -4 -8 -10 7 -33 -42 -26 -55 4 -5 2 -9 -3 -9 -5 0 -23 -32 -38 -70
-34 -83 -8 -63 -438 -331 -71 -44 -153 -106 -201 -151 -80 -76 -83 -80 -124
-190 -39 -106 -81 -280 -81 -334 l0 -24 1465 0 1465 0 0 344 0 344 -40 34
c-21 19 -137 85 -257 148 -120 62 -276 145 -348 185 -71 39 -158 82 -192 96
-35 13 -63 27 -63 31 0 25 -121 258 -138 267 -11 6 -41 11 -66 11 l-46 0 0 88
c0 117 5 131 54 154 37 17 38 18 9 13 -17 -3 -34 -2 -37 3 -3 5 1 9 10 8 20
-1 29 14 46 78 9 33 20 52 36 59 18 8 22 18 22 54 0 24 -7 54 -15 67 -14 21
-14 24 0 29 18 8 21 60 3 55 -7 -2 -25 -29 -41 -59 -24 -48 -26 -59 -16 -87
12 -35 5 -87 -11 -77 -6 3 -7 -1 -4 -10 4 -9 2 -26 -4 -38 -6 -12 -13 -31 -16
-42 -2 -11 -2 32 1 95 6 122 15 149 66 205 26 28 28 29 42 12 7 -10 19 -51 25
-90 17 -103 18 -106 19 -69 0 18 6 53 12 77 11 44 5 119 -9 112 -4 -3 -16 -1
-27 4 -20 8 -20 8 0 8 12 1 21 8 22 19 5 47 23 121 38 150 12 24 18 62 19 131
1 92 0 98 -31 146 -34 54 -100 125 -114 125 -5 0 -9 7 -9 15 0 8 -5 15 -12 15
-6 0 -3 10 8 22 10 12 13 18 5 13 -11 -6 -12 -1 -7 27 7 38 -1 71 -15 62 -5
-3 -6 2 -3 10 3 9 1 16 -5 16 -6 0 -20 14 -31 32 -15 25 -27 33 -52 34 -70 4
-122 19 -114 33 3 4 -9 16 -26 26 -26 15 -33 16 -42 4 -13 -17 -80 -14 -70 3
5 7 -2 9 -20 6 -16 -3 -51 0 -79 7 -29 7 -59 13 -67 14 -8 1 -35 3 -60 6 -34
3 -39 2 -20 -4z m590 -235 c0 -3 -4 -8 -10 -11 -5 -3 -10 -1 -10 4 0 6 5 11
10 11 6 0 10 -2 10 -4z m-845 -44 c-3 -3 -11 0 -18 7 -9 10 -8 11 6 5 10 -3
15 -9 12 -12z m782 -954 c-3 -8 -6 -5 -6 6 -1 11 2 17 5 13 3 -3 4 -12 1 -19z
m-866 -714 c-9 -28 -9 -29 -10 -3 -1 14 2 29 6 32 11 12 13 2 4 -29z m10 -107
c-8 -8 -11 -5 -11 9 0 27 14 41 18 19 2 -9 -1 -22 -7 -28z m-21 14 c0 -6 -4
-13 -10 -16 -5 -3 -10 1 -10 9 0 9 5 16 10 16 6 0 10 -4 10 -9z m6 -63 c4 -6
3 -8 -4 -4 -5 3 -12 0 -15 -6 -2 -7 -8 -10 -12 -6 -8 8 2 28 15 28 5 0 12 -5
16 -12z m639 2 c3 -5 1 -10 -4 -10 -6 0 -11 5 -11 10 0 6 2 10 4 10 3 0 8 -4
11 -10z m-658 -82 c-3 -7 -5 -2 -5 12 0 14 2 19 5 13 2 -7 2 -19 0 -25z m50
10 c-3 -8 -6 -5 -6 6 -1 11 2 17 5 13 3 -3 4 -12 1 -19z m33 -118 c0 -5 -4
-10 -10 -10 -5 0 -10 5 -10 10 0 6 5 10 10 10 6 0 10 -4 10 -10z"/>
<path d="M1778 2245 c-16 -9 -28 -18 -28 -21 0 -3 5 -2 10 1 6 3 10 1 10 -5 0
-8 29 -9 98 -4 71 5 105 3 122 -6 18 -10 20 -14 9 -21 -10 -6 -5 -10 19 -15
19 -4 32 -13 32 -21 0 -9 6 -13 15 -9 8 3 15 1 15 -4 0 -6 9 -10 20 -10 33 0
23 35 -18 64 -44 30 -90 46 -147 50 -22 2 -60 6 -85 10 -32 4 -53 2 -72 -9z"/>
<path d="M1390 2239 c0 -5 5 -7 10 -4 6 3 10 8 10 11 0 2 -4 4 -10 4 -5 0 -10
-5 -10 -11z"/>
<path d="M2067 2236 c-3 -8 -2 -18 4 -22 16 -9 22 2 11 21 -8 15 -10 16 -15 1z"/>
<path d="M1365 2220 c-2 -4 16 -7 40 -9 24 -1 46 2 49 7 3 5 -15 9 -40 8 -25
0 -47 -3 -49 -6z"/>
<path d="M1239 2193 c-13 -16 -12 -17 4 -4 9 7 17 15 17 17 0 8 -8 3 -21 -13z"/>
<path d="M1706 2164 c-15 -11 -21 -37 -17 -71 2 -20 21 -15 21 5 0 19 30 51
65 70 16 9 14 10 -17 9 -20 0 -43 -6 -52 -13z"/>
<path d="M1385 2141 c-11 -4 -33 -11 -48 -15 -22 -5 -27 -4 -21 6 5 8 1 8 -11
-2 -17 -14 -11 -15 63 -18 45 -1 91 2 101 8 11 5 28 7 38 3 16 -6 16 -5 4 10
-14 18 -88 23 -126 8z m45 -11 c0 -5 -4 -10 -10 -10 -5 0 -10 5 -10 10 0 6 5
10 10 10 6 0 10 -4 10 -10z"/>
<path d="M1754 2135 c-23 -17 -5 -20 31 -3 19 8 28 9 33 1 7 -11 152 -29 152
-19 0 3 -13 12 -30 21 -35 18 -90 20 -90 3 0 -9 -3 -9 -12 0 -16 16 -60 15
-84 -3z"/>
<path d="M1770 1927 c0 -17 -21 -27 -58 -28 -37 0 -118 -34 -104 -43 17 -10
112 -14 118 -4 3 4 16 8 29 8 31 0 51 59 25 75 -5 3 -10 0 -10 -8z"/>
<path d="M1513 1873 c9 -2 23 -2 30 0 6 3 -1 5 -18 5 -16 0 -22 -2 -12 -5z"/>
<path d="M2349 1853 c-13 -16 -12 -17 4 -4 9 7 17 15 17 17 0 8 -8 3 -21 -13z"/>
<path d="M1352 1821 c-17 -17 -32 -33 -32 -37 0 -5 16 7 35 26 32 31 39 40 32
40 -1 0 -17 -13 -35 -29z"/>
<path d="M1788 1733 c-47 -2 -78 -8 -78 -15 0 -6 10 -8 24 -4 24 6 43 -15 30
-35 -3 -5 0 -9 5 -9 6 0 11 8 12 18 0 15 1 15 7 0 6 -15 11 -14 51 5 43 21 68
49 39 45 -7 -1 -48 -4 -90 -5z"/>
<path d="M1630 1720 c-9 -6 -10 -10 -3 -10 6 0 15 5 18 10 8 12 4 12 -15 0z"/>
<path d="M1412 1711 c-22 -6 -22 -7 12 -22 28 -13 36 -14 36 -3 0 7 8 18 18
23 14 9 12 10 -13 10 -16 -1 -40 -4 -53 -8z"/>
<path d="M1678 1713 c7 -3 16 -2 19 1 4 3 -2 6 -13 5 -11 0 -14 -3 -6 -6z"/>
</g>
</svg>
